<?xml version="1.0"?>
<svg xmlns="http://www.w3.org/2000/svg" xmlns:xlink="http://www.w3.org/1999/xlink" xmlns:svgjs="http://svgjs.com/svgjs" version="1.1" width="512" height="512" x="0" y="0" viewBox="0 0 511.98 511.98" style="enable-background:new 0 0 512 512" xml:space="preserve"><g><g xmlns="http://www.w3.org/2000/svg"><path d="m139.702 317.377c13.119 11.113 21.818 26.169 24.961 42.604h76.327v-106.899c-25.849-6.678-45-30.195-45-58.102h30c0 16.542 13.458 30 30 30s30-13.458 30-30h30c0 27.906-19.151 51.424-45 58.102v106.898h76.344c3.177-16.431 11.959-31.562 25.202-42.823 40.326-34.29 63.454-84.289 63.454-137.177 0-161.352-196.781-240.593-308.844-125.467-73.136 75.138-66.884 195.57 12.556 262.864z" fill="#ffffff" data-original="#000000" style=""/><path d="m255.99 511.98c33.084 0 60-26.916 60-60h-120c0 33.084 26.916 60 60 60z" fill="#ffffff" data-original="#000000" style=""/><path d="m165.99 389.98h180v32h-180z" fill="#ffffff" data-original="#000000" style=""/></g></g></svg>
