<?xml version="1.0"?>
<svg xmlns="http://www.w3.org/2000/svg" xmlns:xlink="http://www.w3.org/1999/xlink" xmlns:svgjs="http://svgjs.com/svgjs" version="1.1" width="512" height="512" x="0" y="0" viewBox="0 0 512 512" style="enable-background:new 0 0 512 512" xml:space="preserve" class=""><g>
<g xmlns="http://www.w3.org/2000/svg">
	<g>
		<path d="M511.169,110.673c-0.829-16.148-8.506-31.266-21.062-41.477c-27.481-22.349-58.227-39.646-91.385-51.41    C365.459,5.985,330.464,0.001,294.71,0C211.818,0,133.888,32.28,75.275,90.893C27.221,138.947,0.756,202.835,0.756,270.789    S27.22,402.633,75.273,450.687C116.148,491.563,169.84,512,223.533,512c53.692,0,107.388-20.439,148.263-61.314    c27.925-27.925,45.629-64.941,49.851-104.227c0.018-0.173,0.037-0.344,0.055-0.517c2.94-28.156-7.306-56.096-27.329-76.109    c-21.788-21.776-43.345-43.274-43.945-43.898c-44.889-44.828-117.881-44.808-162.748,0.058    c-35.957,35.957-35.957,94.463,0.001,130.421c28.812,28.811,75.693,28.811,104.505,0c6.011-6.012,15.84-5.881,21.683,0.395    c5.636,6.052,5.029,15.568-0.856,21.378c-20.219,19.965-46.651,29.948-73.082,29.948c-26.638,0-53.277-10.14-73.556-30.419    c-47.704-47.703-47.704-125.323-0.001-173.026c56.633-56.633,148.78-56.631,205.415,0.003    c19.949,19.851,52.201,19.811,72.101-0.089l50.626-50.626C505.928,142.57,511.996,126.785,511.169,110.673z" fill="#ffffff" data-original="#000000" style="" class=""/>
	</g>
</g>
<g xmlns="http://www.w3.org/2000/svg">
</g>
<g xmlns="http://www.w3.org/2000/svg">
</g>
<g xmlns="http://www.w3.org/2000/svg">
</g>
<g xmlns="http://www.w3.org/2000/svg">
</g>
<g xmlns="http://www.w3.org/2000/svg">
</g>
<g xmlns="http://www.w3.org/2000/svg">
</g>
<g xmlns="http://www.w3.org/2000/svg">
</g>
<g xmlns="http://www.w3.org/2000/svg">
</g>
<g xmlns="http://www.w3.org/2000/svg">
</g>
<g xmlns="http://www.w3.org/2000/svg">
</g>
<g xmlns="http://www.w3.org/2000/svg">
</g>
<g xmlns="http://www.w3.org/2000/svg">
</g>
<g xmlns="http://www.w3.org/2000/svg">
</g>
<g xmlns="http://www.w3.org/2000/svg">
</g>
<g xmlns="http://www.w3.org/2000/svg">
</g>
</g></svg>
